<svg version="1" xmlns="http://www.w3.org/2000/svg" width="2385.333" height="2385.333" viewBox="0 0 1789.000000 1789.000000"><path d="M342 203.7c-60.6 4.2-105.5 19.2-143 47.9-10.3 7.8-27.7 25.1-35.1 34.9-18 23.5-31.8 53.1-37.7 80.5-4.8 22.4-7.9 58.4-6.7 77.5 2.4 36.5 13.4 68.8 34.2 100.5 9.4 14.2 31.1 36.3 51.2 52 7.4 5.8 14.2 11.2 15.3 12 1.8 1.4 1.4 1.8-7 5.3-46.9 19.9-83.2 61.7-93.7 108.2-9.5 42.1-3.5 85.9 16.5 120.9 10.2 17.8 29 38.8 46.4 51.8 45 33.6 111.3 39.4 164.6 14.2 19-9 39.2-24.5 53.1-40.9 28-32.9 40.3-69.7 38.6-115.5-1.5-38.5-11.6-71.5-32-105.2-16.7-27.4-33-46.1-76.2-87-51.9-49.1-73-77-80.4-106.1-4.1-15.8-5.2-36.8-2.7-49.9 5.9-30.7 27.6-54.8 59.4-66.2 15.9-5.7 43.9-9.6 67.9-9.6 49.3.1 93.5 20.2 134.9 61.5 35.3 35.1 55.1 74.5 63.7 126.8l2.2 13.2.2 235.2c.2 129.4.1 235.3-.2 235.3-.4 0-6.3.9-13.3 2-50.9 7.9-98.7 23.6-149.7 49.2-32.9 16.5-56.3 32-88 58.2-20.9 17.3-59 52-59 53.7 0 .5 20.2 19.9 45 43.2l45 42.3 13.6-12.5c24.5-22.8 42.3-37 64.3-51.5 46.8-31.1 88.4-47.4 137.9-54.1l4.8-.6-.4 90.8c-.3 56.7-.9 93.4-1.6 97.8-1.8 12.4-3.3 19.5-4 19.5-.3 0-2.6-3.7-5.1-8.2-6.4-11.6-14.4-22-24.2-31.4-17.8-17.1-37.9-27.1-64.3-32-13.7-2.6-43.7-2.6-58 0-28.2 5.1-55.4 18.4-76.7 37.3-38.4 34.4-56.6 77.2-54.5 128 1.9 44.6 19.3 82.3 52.3 113.2 21.6 20.2 45.5 32.7 74.2 38.8 11.8 2.5 14.5 2.7 37.2 2.7 27.7.1 38.6-1.2 60.5-6.9 16-4.2 28.3-8.8 44.4-16.7 78.8-39 126.4-118.5 141-235.8 4-32.1 4.4-41.5 4.8-119.7l.5-77.3 2.6.6c26.2 5.8 51.4 15.7 75.7 29.7 38.2 22 108.5 74.1 124.9 92.5 1.8 2.1 1.8 2.1 15.5-10.6 24.8-22.9 42.4-37 64.5-51.6 46.8-31.1 88.4-47.4 137.9-54.1l4.8-.6-.4 90.8c-.3 56.7-.9 93.4-1.6 97.8-1.8 12.4-3.3 19.5-4 19.5-.3 0-2.6-3.7-5.1-8.2-6.4-11.6-14.4-22-24.2-31.4-17.8-17.1-37.9-27.1-64.3-32-13.7-2.6-43.7-2.6-58 0-28.2 5.1-55.4 18.4-76.7 37.3-38.4 34.4-56.6 77.2-54.5 128 1.9 44.6 19.3 82.3 52.3 113.2 21.6 20.2 45.5 32.7 74.2 38.8 11.8 2.5 14.5 2.7 37.2 2.7 27.7.1 38.6-1.2 60.5-6.9 16-4.2 28.3-8.8 44.4-16.7 78.8-39 126.4-118.5 141-235.8 4-32.1 4.4-41.5 4.8-119.7l.5-77.3 2.6.6c26.2 5.8 51.4 15.7 75.7 29.7 26 15 72.3 47.6 109.8 77.5 6.5 5.1 12 9.2 12.2 9 .1-.2 4.6-10.2 10-22.3 33.1-75 64.6-129.6 108.4-188.5 23-30.8 33.2-45.6 42.7-61.3 32.9-54.6 53.1-114.7 60.3-179.3 7.9-70.4 4.4-140.2-11-216.9-9.3-46.8-28.4-99.2-61.1-168-9-19-104-206-105.2-207.3-.2-.2-61.7 48.1-136.7 107.2-75 59.2-136.7 107.6-137.1 107.6-.4 0-1.5-2.4-2.6-5.3C1188.9 331 1107.9 255.2 1013 224c-19.7-6.5-49.7-13-60.2-13-2.1 0-3.1-.8-4.4-3.3-.9-1.7-1.8-3.4-2-3.5-.1-.2-1.8.8-3.6 2.2l-3.3 2.6-26.5.4c-28.3.4-44.3 2-65.2 6.1-38.4 7.7-69.5 21.2-96.8 42.1-10.3 7.8-27.7 25.1-35.1 34.9-18.9 24.7-32.5 54.4-38.4 83.9-2.2 11-3.1 17.4-5.1 35.1-.5 4.5-.9 5.5-1.5 4-18-44.6-40.4-79.4-70.5-110-52.3-53.1-120.3-89-187.1-99-20.7-3.1-50.7-4.3-71.3-2.8zm700.5 175.4c10.6 8.4 28.6 26.4 36.5 36.4 24.8 31.3 39.4 65.2 46.2 107.8 2.1 12.6 2.2 16.9 2.4 92.2.1 51-.1 74.4-.7 66-2.6-39.8-11.7-97.7-20.5-130.5-11.3-42.2-36.2-103.7-66.6-164.5-4.4-8.8-7.4-15.5-6.7-14.9.8.6 5 3.9 9.4 7.5zm-89.2 113.4c13.4 29.3 30.6 75.9 35.7 96.9 12.7 51.7 16.7 138.1 8.9 190.1-6 40.1-17.3 76.1-34.5 110.7-9.5 18.9-16.9 30.7-51.5 81.8-23.7 35-53.3 79.8-55.3 83.7-.1.1-5-2.6-11.1-5.9-39.4-21.6-84.7-37.5-125-43.8-7.7-1.2-15-2.4-16.2-2.6l-2.3-.4V869.9l6.2 7.2c17.5 20.3 41.4 36.6 66.5 45.3 27 9.3 60.7 11.1 90.4 4.6 59.5-12.9 109-62.1 121.7-121.1 7.7-35.7 4.2-78.4-9.3-114-7.5-19.6-18.9-40.2-32.4-58.4-14.5-19.5-28.1-34-62.6-66.7-40.8-38.6-61.7-63.3-73.3-86.4l-3.1-6.1 49.7-39.2 49.6-39.2 21 41.8c11.5 23 23.6 47.6 26.9 54.8zm552 6c13.4 29.3 30.6 75.9 35.7 96.9 12.7 51.7 16.7 138.1 8.9 190.1-6 40.1-17.3 76.1-34.5 110.7-9.5 18.9-16.9 30.7-51.5 81.8-23.7 35-53.3 79.8-55.3 83.7-.1.1-5-2.6-11.1-5.9-39.4-21.6-84.7-37.5-125-43.8-7.7-1.2-15-2.4-16.2-2.6l-2.3-.4V562.5l101.7-80.3 101.7-80.3 21 41.8c11.5 23 23.6 47.6 26.9 54.8zm-792.9 61.8c10.1 13.3 32.9 34.2 58.5 53.7l3.3 2.5-9 3.8c-19.7 8.4-35.4 19-52.5 35.7L702 666.5V556.2l2.3-1.5c1.2-.9 2.3-1.6 2.3-1.6.1-.1 2.7 3.2 5.8 7.2zM292.6 727.9c22.7 10.6 30.4 38.4 16 57.9-4.3 6-8.7 9.4-16.4 13-5 2.4-6.9 2.7-15.7 2.7-8.7 0-10.7-.3-15.7-2.7-8-3.7-15.2-10.7-19.1-18.7-3-6.1-3.2-7.3-3.2-16.6s.2-10.5 3.2-16.5c3.6-7.3 10.8-15.1 16.8-18.3 10.5-5.4 23.5-5.7 34.1-.8zm552 6c22.7 10.6 30.4 38.4 16 57.9-4.3 6-8.7 9.4-16.4 13-5 2.4-6.9 2.7-15.7 2.7-8.7 0-10.7-.3-15.7-2.7-8-3.7-15.2-10.7-19.1-18.7-3-6.1-3.2-7.3-3.2-16.6s.2-10.5 3.2-16.5c3.6-7.3 10.8-15.1 16.8-18.3 10.5-5.4 23.5-5.7 34.1-.8zm283.1 272.7c-.1.2-6.1 1.2-13.2 2.3-25.9 4.1-52.8 10.5-76.3 18.5-7.2 2.4-12.9 3.9-12.5 3.3.4-.7 3.9-5.5 7.8-10.7 58.9-78.3 88.7-160.8 93.3-257.5.4-9.2.8 39.1 1 113.9.1 71.5.1 130.1-.1 130.2zm-662.5 385.2c8.1 3.8 15.2 11 19.2 19.2 2.8 5.9 3.1 7.4 3.1 16 0 8.1-.4 10.3-2.6 15-4 8.5-9.9 14.4-18.7 18.7-7.3 3.6-8 3.8-17.6 3.8-8.8 0-10.8-.3-15.8-2.7-26.6-12.4-30.6-48.3-7.3-66 11-8.4 27.1-10 39.7-4zm552 6c8.1 3.8 15.2 11 19.2 19.2 2.8 5.9 3.1 7.4 3.1 16 0 8.1-.4 10.3-2.6 15-4 8.5-9.9 14.4-18.7 18.7-7.3 3.6-8 3.8-17.6 3.8-8.8 0-10.8-.3-15.8-2.7-26.6-12.4-30.6-48.3-7.3-66 11-8.4 27.1-10 39.7-4z"/></svg>